<?xml version="1.0" encoding="UTF-8" standalone="no"?><!DOCTYPE svg PUBLIC "-//W3C//DTD SVG 1.1//EN" "http://www.w3.org/Graphics/SVG/1.1/DTD/svg11.dtd"><svg width="100%" height="100%" viewBox="0 0 91 96" version="1.1" xmlns="http://www.w3.org/2000/svg" xmlns:xlink="http://www.w3.org/1999/xlink" xml:space="preserve" xmlns:serif="http://www.serif.com/" style="fill-rule:evenodd;clip-rule:evenodd;stroke-linejoin:round;stroke-miterlimit:2;"><g id="Layer-1" serif:id="Layer 1"><path id="path863" d="M53.908,5.669c-8.35,-0.033 -17.154,4.431 -23.385,15.378c-22.462,16.956 -8.022,43.97 10.141,45.623l-3.294,12.937c-10.864,0.417 -31.092,5.017 -31.701,7.414c31.701,-7.414 63.564,-0.292 79.244,2.881c-10.314,-4.842 -22.064,-8.501 -36.661,-9.817l2.31,-8.203c21.888,4.501 40.065,-14.574 27.309,-37.756c2.611,-15.85 -10.046,-28.4 -23.963,-28.457Zm3.715,15.964l6.896,44.825l-12.977,-9.61l-5.77,23.107l-5.667,-0.211l6.091,-23.077l-16.341,2.462l27.768,-37.496Z" style="fill:#00bb86;fill-rule:nonzero;"/></g></svg>