<?xml version="1.0" encoding="UTF-8" standalone="no"?>
<!DOCTYPE svg PUBLIC "-//W3C//DTD SVG 1.1//EN" "http://www.w3.org/Graphics/SVG/1.1/DTD/svg11.dtd">
<svg width="100%" height="100%" viewBox="0 0 875 790" version="1.1" xmlns="http://www.w3.org/2000/svg" xmlns:xlink="http://www.w3.org/1999/xlink" xml:space="preserve" xmlns:serif="http://www.serif.com/" style="fill-rule:evenodd;clip-rule:evenodd;stroke-linejoin:round;stroke-miterlimit:2;">
    <g transform="matrix(1,0,0,1,-18.2717,0)">
        <path d="M615.186,0C657.383,0 696.375,22.512 717.473,59.055C760.495,133.572 834.052,260.976 877.074,335.493C898.173,372.036 898.173,417.06 877.074,453.603C834.052,528.12 760.495,655.524 717.473,730.041C696.375,766.585 657.383,789.096 615.186,789.096L295.983,789.096C253.787,789.096 214.795,766.585 193.697,730.041C150.674,655.524 77.118,528.12 34.095,453.603C12.997,417.06 12.997,372.036 34.095,335.493C77.118,260.976 150.674,133.572 193.697,59.055C214.795,22.512 253.787,0 295.983,0L615.186,0ZM520.214,604.884C520.214,624.453 504.35,640.317 484.781,640.317C466.615,640.317 444.554,640.317 426.389,640.317C406.82,640.317 390.956,624.453 390.956,604.884C390.956,562.498 390.956,493.537 390.956,463.749C390.956,460.203 389.363,456.844 386.617,454.601C383.871,452.358 380.262,451.467 376.788,452.175C357.148,456.176 320.058,463.731 284.65,470.944C270.414,473.844 255.85,467.76 247.908,455.595C239.965,443.429 240.254,427.648 248.636,415.782C302.046,340.166 383.595,224.715 426.644,163.77C433.284,154.369 444.076,148.779 455.585,148.779C467.094,148.779 477.886,154.369 484.526,163.77C527.574,224.715 609.123,340.166 662.534,415.782C670.916,427.648 671.205,443.429 663.262,455.595C655.32,467.76 640.756,473.844 626.52,470.944C591.112,463.731 554.022,456.176 534.382,452.175C530.908,451.467 527.299,452.358 524.553,454.601C521.807,456.844 520.214,460.203 520.214,463.749C520.214,493.537 520.214,562.498 520.214,604.884Z" style="fill:rgb(0,187,134);"/>
    </g>
</svg>
