<?xml version="1.0" encoding="UTF-8" standalone="no"?>
<!DOCTYPE svg PUBLIC "-//W3C//DTD SVG 1.1//EN" "http://www.w3.org/Graphics/SVG/1.1/DTD/svg11.dtd">
<svg width="100%" height="100%" viewBox="0 0 597 517" version="1.1" xmlns="http://www.w3.org/2000/svg" xmlns:xlink="http://www.w3.org/1999/xlink" xml:space="preserve" xmlns:serif="http://www.serif.com/" style="fill-rule:evenodd;clip-rule:evenodd;stroke-linejoin:round;stroke-miterlimit:2;">
    <g transform="matrix(1,0,0,1,-157.419,-136.329)">
        <g transform="matrix(0.566786,0.327234,-0.327234,0.566786,142.263,-595.782)">
            <path d="M1080.96,667.595C1136.8,635.358 1205.59,635.358 1261.43,667.595C1325.57,704.628 1411.37,754.162 1475.51,791.195C1531.35,823.432 1565.74,883.01 1565.74,947.484L1565.74,1194.68C1565.74,1259.16 1531.35,1318.74 1475.51,1350.97C1411.37,1388.01 1325.57,1437.54 1261.43,1474.57C1205.59,1506.81 1136.8,1506.81 1080.96,1474.57C1016.82,1437.54 931.023,1388.01 866.881,1350.97C811.044,1318.74 776.647,1259.16 776.647,1194.68L776.647,947.484C776.647,883.01 811.044,823.432 866.881,791.195C931.023,754.162 1016.82,704.628 1080.96,667.595Z" style="fill:rgb(0,187,134);"/>
        </g>
        <g transform="matrix(1.12794e-16,-0.67715,1.13843,2.25967e-16,-646.364,1159.83)">
            <path d="M944.936,1005.11C916.036,1005.11 892.609,991.171 892.609,973.981C892.609,969.993 892.609,965.91 892.609,961.922C892.609,944.732 916.036,930.797 944.936,930.797C981.697,930.797 1028.94,930.797 1055.88,930.797C1061.12,930.797 1066.08,929.398 1069.39,926.986C1072.71,924.574 1074.02,921.404 1072.98,918.352C1070.93,912.389 1068.3,904.709 1065.41,896.265C1061.13,883.76 1070.11,870.967 1088.08,863.991C1106.05,857.014 1129.35,857.268 1146.88,864.631C1207.72,890.195 1281.51,921.195 1332.29,942.529C1346.17,948.362 1354.42,957.842 1354.42,967.951C1354.42,978.061 1346.17,987.541 1332.29,993.374C1281.51,1014.71 1207.72,1045.71 1146.88,1071.27C1129.35,1078.63 1106.05,1078.89 1088.08,1071.91C1070.11,1064.93 1061.13,1052.14 1065.41,1039.64C1068.3,1031.19 1070.93,1023.51 1072.98,1017.55C1074.02,1014.5 1072.71,1011.33 1069.39,1008.92C1066.08,1006.5 1061.12,1005.11 1055.88,1005.11C1028.94,1005.11 981.697,1005.11 944.936,1005.11Z" style="fill:white;"/>
        </g>
    </g>
</svg>
